<svg width="512" height="512" viewBox="0 0 512 512" fill="none" xmlns="http://www.w3.org/2000/svg">
  <!-- Main circle background -->
  <circle cx="256" cy="256" r="256" fill="#0F5A85"/>
  
  <!-- Branch design - scaled and centered -->
  <g transform="translate(256, 256) scale(0.32) translate(-1950, -750)">
    <!-- Main branch paths from original logo -->
    <path d="M1646.79 1190.47C1476.06 987.893 1468.28 741.218 1605.03 531.895C1684.38 410.232 1885.43 254.818 2159.19 310.228C2297.76 338.277 2409.65 424.14 2465.77 496.98C2619.53 698.016 2624.96 942.626 2485.46 1146.52C2405.19 1263.85 2199.31 1417.62 1935.45 1360.04C1872.25 1346.25 1777.47 1306.85 1741.38 1274.01C1753.34 1186.6 1800.75 1087.84 1898.64 1017.15C1927.62 1068.19 1978.87 1127.02 2093.31 1083.64C2072.1 1036.73 2060.75 1000.59 1975.42 977.617C2010.16 967.187 2041.54 961.415 2078.04 953.565C2111.73 946.322 2135.57 929.253 2171.93 925.144C2240.76 916.621 2275.37 940.938 2298.92 971.048C2234.17 990.112 2205.45 977.522 2169.93 946.841C2161.23 950.467 2152.33 954.286 2143.48 957.773C2189.75 1011.52 2253.13 1028.16 2338 981.078C2314.88 941.815 2289.63 899.881 2202.48 895.224C2272.8 847.945 2317.16 778.687 2344.81 720.669C2373.55 709.232 2395.22 687.011 2406.62 669.057C2436.48 621.937 2429.54 572.049 2406.2 524.596C2345.53 549.972 2321.07 582.525 2311.4 622.98C2308.37 635.641 2305.85 669.52 2310.48 682.222C2321.32 711.947 2316.37 717.285 2299.65 746.423C2264.88 807.044 2212.41 869.252 2119.33 909.815C2069.05 931.785 2032.25 931.763 1978.71 947.14C1931.65 960.647 1909.96 979.691 1876.65 997.237L1875.09 998.699C1860.62 1012.08 1842.34 1023.56 1827.79 1038.68C1769.73 1098.99 1743.91 1158.25 1723.1 1224.32C1721.47 1234.87 1718.15 1245.49 1715.2 1255.97C1698.38 1241.47 1683.97 1228.78 1668.71 1213.79C1702.2 1112.39 1785.03 976.499 1959.01 922.699C1987.79 913.518 2019.98 908.198 2051.73 902.977C2065.14 900.768 2066.74 889.147 2063.51 883.3C2056.28 870.199 2014.86 879.976 1999.75 883.374C1984.58 886.79 1970.28 890.253 1954.81 893.421C1988.1 841.615 1982.98 799.09 1962.5 746.656L1940.41 755.359C1905.78 774.793 1893.78 785.818 1876.76 810.997C1852.89 857.714 1855.37 883.864 1867.26 930.934C1833.33 947.759 1812.07 965.621 1785.86 985.636C1789.97 936.76 1781.35 901.226 1738.36 857.022C1677.12 913.872 1664.03 963.164 1692.46 1028.61C1698.4 1042.3 1707.45 1051.78 1713.86 1063.55C1683.35 1110.77 1666.01 1141.34 1646.79 1190.47Z" fill="white"/>
    
    <path d="M1723.1 1224.32C1712.54 1207.2 1743.34 1157.98 1749.63 1138.96C1751.68 1132.78 1749.01 1124.56 1752.9 1118.83C1758.33 1110.82 1764.64 1101.4 1774.82 1094.77C1780.05 1091.36 1781.19 1091.32 1780.48 1086.7C1778.83 1089.14 1778.73 1089.62 1776.09 1091.74L1773.92 1090.5C1776.06 1083.49 1777.3 1079.76 1781.01 1072.89L1787.02 1074.09C1793.66 1067.74 1788.62 1064.76 1791.38 1062.09L1796.33 1066.32C1816.81 1041.13 1837.73 1018.02 1871.74 997.072L1876.65 997.237L1875.09 998.699C1860.62 1012.08 1842.34 1023.56 1827.79 1038.68C1769.73 1098.99 1743.91 1158.25 1723.1 1224.32Z" fill="#E8F4F8"/>
    
    <path d="M1876.76 810.997C1874.84 806.619 1874.03 805.809 1877.08 801.597L1870.82 802.986C1867.99 794.938 1919.56 754.211 1940.41 755.359C1905.78 774.793 1893.78 785.818 1876.76 810.997Z" fill="#E8F4F8"/>
    
    <path d="M2392.23 762.102C2426.59 760.655 2437.84 765.527 2465.49 775.388C2446.72 809.638 2436.86 851.508 2368.76 867.13C2337.12 870.256 2322.28 864.495 2296.73 855.07C2306.42 823.296 2326.31 772.604 2392.23 762.102Z" fill="white"/>
    
    <path d="M2392.53 791.41C2401.39 790.623 2418.99 789.588 2424.27 794.084C2425.67 807.372 2390.51 832.892 2367.2 838.674C2347.03 840.888 2325.78 840.743 2338.37 826.285C2352.01 810.624 2361.48 798.294 2392.53 791.41Z" fill="#0F5A85"/>
    
    <path d="M2142.88 722.239C2147.87 725.108 2153.87 737.948 2156.07 742.223C2173.05 774.989 2179.16 808.297 2164.59 841.737C2154.33 865.311 2139.83 878.849 2101.44 891.726L2096.83 892.002C2087.84 886.697 2079.31 854.165 2078.04 846.247C2070.24 797.45 2087.33 760.132 2142.88 722.239Z" fill="white"/>
    
    <path d="M2134.75 763.657C2137.65 765.964 2136.93 765.602 2138.12 768.479C2151.19 799.64 2146.11 833.339 2114.45 860.846C2104.52 855.388 2105.29 836.011 2105.07 828.341C2104.37 804.963 2114.41 784.111 2134.75 763.657Z" fill="#0F5A85"/>
    
    <path d="M2206.48 602.019C2225.9 608.868 2249.61 627.953 2258.86 639.665C2293.58 683.571 2287.01 730.582 2257.11 774.381L2255.08 774.538C2245.15 770.997 2223.2 755.45 2217.27 749.129C2170.97 699.759 2180.64 652.517 2206.48 602.019Z" fill="white"/>
    
    <path d="M2219.57 640.964C2230.23 649.795 2241.83 659.787 2245.31 670.38C2260.21 687.645 2252.84 718.901 2246.85 737.169C2220.72 715.853 2211 693.967 2212.81 668.35C2214.06 657.983 2214.5 651.047 2219.57 640.964Z" fill="#0F5A85"/>
    
    <path d="M2219.57 640.964C2230.23 649.795 2241.83 659.787 2245.31 670.38C2238.21 667.273 2228.28 656.895 2225.44 652.193L2222.21 652.059C2216.28 657.134 2220.24 663.258 2212.81 668.35C2214.06 657.983 2214.5 651.047 2219.57 640.964Z" fill="#E8F4F8"/>
    
    <path d="M1736.05 898.587C1738.61 900.112 1738.89 900.374 1740.25 902.485C1768.7 946.943 1764.49 995.375 1730.31 1037.91C1728.43 1035.39 1726.65 1032.84 1724.98 1030.28C1698.13 988.604 1701.06 938.64 1736.05 898.587Z" fill="white"/>
    
    <path d="M1945.18 784.511C1948.41 787.625 1948.15 790.796 1948.57 794.552C1953.64 840.569 1948.5 875.553 1891.76 911.146C1888.88 903.232 1887.02 895.214 1886.25 887.156C1882.38 849.765 1899.06 812.903 1945.18 784.511Z" fill="white"/>
    
    <path d="M1943.91 1006.19C2011.35 1003.03 2038.27 1038.23 2055.58 1067.22L2035.3 1069.92C1994.36 1072.24 1966.67 1057.38 1947.75 1039.24C1940.13 1031.95 1926.18 1017.48 1927.6 1009.21C1933.1 1006.57 1935.43 1007.12 1943.91 1006.19Z" fill="white"/>
    
    <path d="M2389.61 563.122C2394.18 565.791 2394.99 573.473 2395.52 577.331C2401.61 621.332 2396.86 654.903 2344.01 689.236C2339.42 688.142 2339.68 685.037 2339.31 682.543C2332.28 636.51 2336.78 600.372 2389.61 563.122Z" fill="white"/>
  </g>
</svg>
